<?xml version="1.0" encoding="UTF-8"?>
<svg version="1.1" xmlns="http://www.w3.org/2000/svg" width="252" height="249">
<path d="M0 0 C83.16 0 166.32 0 252 0 C252 82.17 252 164.34 252 249 C168.84 249 85.68 249 0 249 C0 166.83 0 84.66 0 0 Z " fill="#4C6FFE" transform="translate(0,0)"/>
<path d="M0 0 C83.16 0 166.32 0 252 0 C252 82.17 252 164.34 252 249 C168.84 249 85.68 249 0 249 C0 166.83 0 84.66 0 0 Z M59.5625 26.8125 C58.56959961 27.32961548 58.56959961 27.32961548 57.55664062 27.85717773 C52.23313839 30.70504246 47.55001923 34.02907412 43 38 C42.35160156 38.495 41.70320313 38.99 41.03515625 39.5 C26.14942898 51.29067506 17.60426804 70.57716408 15 89 C14.47401496 95.0514064 14.52815555 101.12978729 14.53125 107.19921875 C14.52412248 108.92731463 14.51641987 110.65540822 14.50817871 112.38349915 C14.49482515 115.98644604 14.4931229 119.58917417 14.49902344 123.19213867 C14.50490146 127.75277159 14.47436366 132.31233333 14.43390656 136.87275982 C14.40773735 140.43786525 14.40517837 144.00272296 14.40879822 147.56791115 C14.40713316 149.24642431 14.39775106 150.92495234 14.37965393 152.60336876 C14.15527755 175.98546717 20.89212139 198.52728662 37.49072266 215.5390625 C55.52177146 232.9926044 76.82752311 239.86343502 101.44140625 239.59375 C103.1461529 239.59203081 104.85090219 239.59211274 106.5556488 239.59387207 C110.09620108 239.59223584 113.63610717 239.57385495 117.17651367 239.54199219 C121.66304922 239.50229013 126.14874468 239.49796186 130.63542271 239.50545502 C134.14555752 239.50855742 137.65551148 239.49629002 141.16560173 239.47932434 C142.8178182 239.4724073 144.47005512 239.46915567 146.12228584 239.47001648 C172.47171122 239.4491375 194.85791153 232.8821571 214 214 C227.43677154 198.97764876 235.09739958 179.59112075 235.17700195 159.4284668 C235.18685875 158.32694527 235.18685875 158.32694527 235.19691467 157.20317078 C235.21653565 154.78518542 235.22829139 152.36726216 235.23828125 149.94921875 C235.24235678 149.11539988 235.2464323 148.281581 235.25063133 147.42249489 C235.27145455 143.00033446 235.28576679 138.57820462 235.29516602 134.15600586 C235.30616235 129.63550216 235.34049362 125.11549994 235.38033772 120.59517193 C235.40676411 117.07993291 235.41488109 113.56480809 235.41844749 110.04947853 C235.42325455 108.38605209 235.43469537 106.72262863 235.45348549 105.05930138 C235.60479452 90.76538464 234.19102263 76.27412981 227.1875 63.5 C226.67147217 62.51495483 226.67147217 62.51495483 226.14501953 61.51000977 C223.29471094 56.2146156 219.9491068 51.53626417 216 47 C215.33291016 46.12021484 215.33291016 46.12021484 214.65234375 45.22265625 C202.80383272 29.98885635 183.44071348 22.38740648 165 19 C158.68070088 18.24362891 152.34240996 18.31496293 145.98828125 18.37109375 C144.23772535 18.37026117 142.48716956 18.36778723 140.73661804 18.36378479 C137.10370793 18.36095769 133.47142489 18.37532462 129.83862305 18.40307617 C125.22970801 18.43723063 120.62190573 18.43108529 116.01293659 18.4124136 C112.41018212 18.40174678 108.80767784 18.410867 105.20494652 18.42579842 C103.50724217 18.43090485 101.80951087 18.43059254 100.11181068 18.42425346 C85.95918452 18.39120731 72.24568598 19.95621203 59.5625 26.8125 Z " fill="#070B25" transform="translate(0,0)"/>
<path d="M0 0 C14.85 0 29.7 0 45 0 C45 3.96 45 7.92 45 12 C34.77 12 24.54 12 14 12 C14 16.95 14 21.9 14 27 C23.24 27 32.48 27 42 27 C42 30.96 42 34.92 42 39 C32.76 39 23.52 39 14 39 C14 44.28 14 49.56 14 55 C24.23 55 34.46 55 45 55 C45 58.63 45 62.26 45 66 C30.15 66 15.3 66 0 66 C0 44.22 0 22.44 0 0 Z " fill="#F9FAFF" transform="translate(76,97)"/>
<path d="M0 0 C4.95 0 9.9 0 15 0 C15 17.82 15 35.64 15 54 C24.24 54 33.48 54 43 54 C43 57.96 43 61.92 43 66 C28.81 66 14.62 66 0 66 C0 44.22 0 22.44 0 0 Z " fill="#F2F5FF" transform="translate(130,97)"/>
</svg>
